<?xml version="1.0" encoding="utf-8"?>
<svg version="1.1" id="mainLogo"
	xmlns="http://www.w3.org/2000/svg"
	xmlns:xlink="http://www.w3.org/1999/xlink" x="0px" y="0px" viewBox="0 0 512 88.6" style="enable-background:new 0 0 512 88.6;" xml:space="preserve">
	<style type="text/css">
	.st0{fill:#68B3FF;}
	.st1{fill:#FFFFFF;}
	</style>
	<path class="st0" d="M0,44.2C0,30,9,19.4,21.9,19.4c9,0,13.3,5.4,15.1,8h0.7v-6.8h8.9v36.9c0,1.4,0.9,2.2,2.3,2.2h2.1v8.1h-6.4
	c-3.8,0-6.8-2.4-6.8-6.5h-0.6c-1.6,2.3-5.5,7.7-14.8,7.7C9.5,69,0,58.6,0,44.2z M38,44.3c0-10.5-6.6-16.6-14.6-16.6
	c-8.3,0-14.5,6.9-14.5,16.6c0,9.9,6.4,16.5,14.6,16.5C32.4,60.8,38,53.3,38,44.3z"/>
	<path class="st0" d="M56.2,50.9V20.6H65v28.8c0,6.7,4.8,11.1,10.7,11.1c6.5,0,11.6-5.1,11.6-11.9V20.6h8.9v47.2h-8.9v-6.1h-0.7
	c-2,4-6.6,7.3-13.4,7.3C62.7,69,56.2,61,56.2,50.9z"/>
	<path class="st0" d="M102,60h9.1V7.9H102V0h18v60h9v7.8h-27V60z"/>
	<path class="st0" d="M128.4,44.2c0-14.2,9-24.8,21.9-24.8c9,0,13.3,5.4,15.1,8h0.7v-6.8h8.9v36.9c0,1.4,0.9,2.2,2.3,2.2h2.1v8.1
	h-6.3c-3.8,0-6.8-2.4-6.8-6.5h-0.6c-1.6,2.3-5.5,7.7-14.8,7.7C137.8,69,128.4,58.6,128.4,44.2z M166.4,44.3
	c0-10.5-6.6-16.6-14.6-16.6c-8.3,0-14.5,6.9-14.5,16.6c0,9.9,6.4,16.5,14.6,16.5C160.7,60.8,166.3,53.3,166.4,44.3L166.4,44.3z"/>
	<path class="st1" d="M185,20.6h8.7v6.5h0.7c1.5-2.1,5.6-7.7,14.8-7.7c12.9,0,22.5,10.4,22.5,24.7c0,14.4-9.1,24.9-21.9,24.9
	c-9,0-13.5-5.1-15.2-8h-0.7v27.6H185V20.6z M222.5,44.1c0-9.9-6.4-16.4-14.6-16.4c-8.8,0-14.3,7.5-14.3,16.4
	c0,10.5,6.5,16.6,14.5,16.6C216.5,60.7,222.5,53.9,222.5,44.1L222.5,44.1z"/>
	<path class="st1" d="M234.5,60h9.1V7.9h-9.1V0h18v60h9v7.8h-27V60z"/>
	<path class="st1" d="M260.9,44.2c0-14.2,9-24.8,21.9-24.8c9,0,13.3,5.4,15.1,8h0.7v-6.8h8.9v36.9c0,1.4,0.9,2.2,2.3,2.2h2.1v8.1
	h-6.4c-3.8,0-6.8-2.4-6.8-6.5h-0.6c-1.6,2.3-5.5,7.7-14.8,7.7C270.4,69,260.9,58.6,260.9,44.2z M298.9,44.3
	c0-10.5-6.6-16.6-14.6-16.6c-8.3,0-14.5,6.9-14.5,16.6c0,9.9,6.4,16.5,14.6,16.5C293.3,60.8,298.9,53.3,298.9,44.3z"/>
	<path class="st1" d="M317.5,20.6h8.9v6.2h0.7c2-4,6.6-7.3,13.4-7.3c10.6,0,17.1,8,17.1,18.1v30.3h-8.9V39.1
	c0-6.7-4.8-11.2-10.7-11.2c-6.5,0-11.6,5.2-11.6,12v27.9h-8.9L317.5,20.6z"/>
	<path class="st1" d="M361.8,44.3c0-14.9,10.5-24.9,23-24.9c14.2,0,22.5,10.2,22.5,24.3v2.8h-36.4c0.1,9.2,5.6,14.6,14.3,14.6
	c5.8,0,11.3-3.3,12.9-9.1l8.3,2.1c-2.9,9.3-11,14.8-21.2,14.8C371,69,361.8,58.8,361.8,44.3z M398.3,39.8c-0.4-8-6.4-12.5-13.5-12.5
	c-7.2,0-13.1,5.2-13.8,12.5H398.3z"/>
	<path class="st1" d="M416.9,54V28.4h-8.5v-7.8h9V7.1h8.3v13.5h13.8v7.8h-13.8v25.5c0,4.2,1.7,6.1,5.8,6.1h7.4v7.9h-7.5
	C422.7,67.8,416.9,63.7,416.9,54z"/>
	<path class="st1" d="M441.8,44.2c0-14.2,9-24.8,21.9-24.8c9,0,13.3,5.4,15.1,8h0.7v-6.8h8.9v36.9c0,1.4,0.9,2.2,2.3,2.2h2.1v8.1
	h-6.3c-3.8,0-6.8-2.4-6.8-6.5h-0.6c-1.6,2.3-5.5,7.7-14.8,7.7C451.2,69,441.8,58.6,441.8,44.2z M479.8,44.3
	c0-10.5-6.6-16.6-14.6-16.6c-8.3,0-14.5,6.9-14.5,16.6c0,9.9,6.4,16.5,14.6,16.5C474.1,60.8,479.8,53.3,479.8,44.3z"/>
	<path class="st1" d="M503.1,18.8c4.9,0,8.9-4,8.9-9c0-5-4-9-8.9-9s-8.9,4-8.9,9C494.1,14.8,498.1,18.8,503.1,18.8z"/>
</svg>
